<svg xmlns="http://www.w3.org/2000/svg" version="1.1" xmlns:xlink="http://www.w3.org/1999/xlink" xmlns:svgjs="http://svgjs.com/svgjs" width="1440" height="560" preserveAspectRatio="none" viewBox="0 0 1440 560"><g mask="url(&quot;#SvgjsMask1380&quot;)" fill="none"><rect width="1440" height="560" x="0" y="0" fill="url(#SvgjsLinearGradient1381)"></rect><path d="M1231.76,542.576C1260.138,540.274,1279.294,516.739,1293.31,491.957C1307.038,467.683,1316.755,439.505,1304.109,414.65C1290.418,387.742,1261.951,370.936,1231.76,370.985C1201.65,371.034,1175.607,389.247,1159.815,414.884C1143.097,442.024,1134.441,475.803,1150.088,503.574C1165.96,531.745,1199.531,545.19,1231.76,542.576" fill="rgba(222, 231, 238, 0.4)" class="triangle-float3"></path><path d="M710.349,33.383C728.5,33.202,748.332,30.694,757.792,15.202C767.547,-0.774,762.536,-20.705,753.328,-37.003C743.936,-53.627,729.442,-69.005,710.349,-68.771C691.538,-68.54,678.576,-52.256,669.159,-35.971C659.728,-19.66,651.614,-0.032,661.235,16.167C670.73,32.154,691.756,33.569,710.349,33.383" fill="rgba(222, 231, 238, 0.4)" class="triangle-float1"></path><path d="M780.2043901599159 159.81802092568327L768.474700748792 64.28736686894527 631.043564369247 129.64722801400006z" fill="rgba(222, 231, 238, 0.4)" class="triangle-float1"></path><path d="M98.499,313.32C152.799,311.926,203.847,286.608,231.662,239.952C260.161,192.148,264.713,131.325,235.087,84.211C207.01,39.561,151.216,29.87,98.499,28.182C41.497,26.357,-22.554,27.457,-54.13,74.949C-88.213,126.211,-80.255,195.267,-47.061,247.109C-16.254,295.222,41.387,314.787,98.499,313.32" fill="rgba(222, 231, 238, 0.4)" class="triangle-float3"></path><path d="M825.86 408.95 a116.87 116.87 0 1 0 233.74 0 a116.87 116.87 0 1 0 -233.74 0z" fill="rgba(222, 231, 238, 0.4)" class="triangle-float1"></path><path d="M1260.2119765655898 86.6847344790274L1164.062186225229 98.49044426687495 1175.8678960130765 194.6402346072358 1272.0176863534373 182.83452481938826z" fill="rgba(222, 231, 238, 0.4)" class="triangle-float1"></path><path d="M488.826,248.367C515.006,246.126,533.084,225.485,546.745,203.04C561.192,179.304,576.217,151.225,562.741,126.925C549.026,102.194,517.106,98.633,488.826,98.6C460.467,98.567,430.436,103.22,414.608,126.751C397.057,152.842,394.362,187.84,410.742,214.682C426.569,240.616,458.555,250.958,488.826,248.367" fill="rgba(222, 231, 238, 0.4)" class="triangle-float2"></path></g><defs><mask id="SvgjsMask1380"><rect width="1440" height="560" fill="#ffffff"></rect></mask><linearGradient x1="15.28%" y1="-39.29%" x2="84.72%" y2="139.29%" gradientUnits="userSpaceOnUse" id="SvgjsLinearGradient1381"><stop stop-color="rgba(248, 247, 165, 0.3)" offset="0"></stop><stop stop-color="rgba(235, 250, 255, 0.14)" offset="1"></stop></linearGradient></defs></svg>